<svg width="32" height="38" viewBox="0 0 32 38" fill="none" xmlns="http://www.w3.org/2000/svg">
<path d="M22.6665 34.8334H9.33317C3.99984 34.8334 2.6665 33.25 2.6665 26.9167V23.75C2.6665 17.4167 3.99984 15.8334 9.33317 15.8334H22.6665C27.9998 15.8334 29.3332 17.4167 29.3332 23.75V26.9167C29.3332 33.25 27.9998 34.8334 22.6665 34.8334Z" stroke="#0098FF" stroke-width="2.5" stroke-linecap="round" stroke-linejoin="round"/>
<path d="M8 15.8333V12.6666C8 7.42579 9.33333 3.16663 16 3.16663C22 3.16663 24 6.33329 24 11.0833" stroke="#0098FF" stroke-width="2.5" stroke-linecap="round" stroke-linejoin="round"/>
<path d="M15.9998 29.2917C17.8408 29.2917 19.3332 27.5195 19.3332 25.3333C19.3332 23.1472 17.8408 21.375 15.9998 21.375C14.1589 21.375 12.6665 23.1472 12.6665 25.3333C12.6665 27.5195 14.1589 29.2917 15.9998 29.2917Z" stroke="#0098FF" stroke-width="2.5" stroke-linecap="round" stroke-linejoin="round"/>
</svg>
