<svg width="48" height="48" viewBox="0 0 48 48" fill="none" xmlns="http://www.w3.org/2000/svg">
<path d="M14.96 36.7L21.16 41.5C21.96 42.3 23.76 42.7 24.96 42.7H32.56C34.96 42.7 37.56 40.9 38.16 38.5L42.96 23.9C43.96 21.1 42.16 18.7 39.16 18.7H31.16C29.96 18.7 28.96 17.7 29.16 16.3L30.16 9.9C30.56 8.1 29.36 6.1 27.56 5.5C25.96 4.9 23.96 5.7 23.16 6.9L14.96 19.1" stroke="#0098FF" stroke-width="2.5" stroke-miterlimit="10"/>
<path d="M4.75977 36.7V17.1C4.75977 14.3 5.95977 13.3 8.75977 13.3H10.7598C13.5598 13.3 14.7598 14.3 14.7598 17.1V36.7C14.7598 39.5 13.5598 40.5 10.7598 40.5H8.75977C5.95977 40.5 4.75977 39.5 4.75977 36.7Z" stroke="#0098FF" stroke-width="2.5" stroke-linecap="round" stroke-linejoin="round"/>
</svg>
