<svg width="48" height="48" viewBox="0 0 48 48" fill="none" xmlns="http://www.w3.org/2000/svg">
<path d="M24 43.9999C35.0457 43.9999 44 35.0456 44 23.9999C44 12.9542 35.0457 3.99988 24 3.99988C12.9543 3.99988 4 12.9542 4 23.9999C4 35.0456 12.9543 43.9999 24 43.9999Z" stroke="#0098FF" stroke-width="2.5" stroke-linecap="round" stroke-linejoin="round"/>
<path d="M16.0002 6H18.0002C14.1002 17.68 14.1002 30.32 18.0002 42H16.0002" stroke="#0098FF" stroke-width="2.5" stroke-linecap="round" stroke-linejoin="round"/>
<path d="M30 6C33.9 17.68 33.9 30.32 30 42" stroke="#0098FF" stroke-width="2.5" stroke-linecap="round" stroke-linejoin="round"/>
<path d="M6 32V30C17.68 33.9 30.32 33.9 42 30V32" stroke="#0098FF" stroke-width="2.5" stroke-linecap="round" stroke-linejoin="round"/>
<path d="M6 18C17.68 14.1 30.32 14.1 42 18" stroke="#0098FF" stroke-width="2.5" stroke-linecap="round" stroke-linejoin="round"/>
</svg>
