<svg width="27" height="25" viewBox="0 0 27 25" fill="none" xmlns="http://www.w3.org/2000/svg">
<path d="M26.1875 12.3333C26.1875 19.1028 20.5098 24.5969 13.5 24.5969C6.49016 24.5969 0.8125 19.1028 0.8125 12.3333C0.8125 5.55767 6.49016 0.0697021 13.5 0.0697021C20.5098 0.0697021 26.1875 5.55767 26.1875 12.3333Z" fill="#283544"/>
<path d="M19.4469 9.2301C19.3777 9.26914 17.7295 10.093 17.7295 11.9197C17.8072 14.003 19.8094 14.7336 19.8437 14.7336C19.8094 14.7726 19.5415 15.7289 18.7478 16.7312C18.1179 17.5946 17.4188 18.4651 16.3572 18.4651C15.3474 18.4651 14.9849 17.8897 13.8197 17.8897C12.5684 17.8897 12.2143 18.4651 11.2563 18.4651C10.1947 18.4651 9.4438 17.548 8.77959 16.6927C7.91668 15.5732 7.18324 13.8164 7.15734 12.1296C7.13989 11.2358 7.33015 10.3572 7.81311 9.61086C8.49477 8.56897 9.71174 7.86171 11.0407 7.83838C12.059 7.80746 12.9652 8.46808 13.5867 8.46808C14.1822 8.46808 15.2956 7.83838 16.5553 7.83838C17.0991 7.83889 18.5491 7.98643 19.4469 9.2301ZM13.5005 7.65992C13.3193 6.84365 13.8197 6.02737 14.2858 5.50668C14.8813 4.87699 15.8219 4.44958 16.633 4.44958C16.6848 5.26586 16.3566 6.06641 15.7701 6.64947C15.2438 7.27916 14.3376 7.75321 13.5005 7.65992Z" fill="white"/>
</svg>
