<svg width="40" height="42" viewBox="0 0 40 42" fill="none" xmlns="http://www.w3.org/2000/svg">
<path d="M11.7156 23.9858H9.3952L8.23499 25.9082L9.3952 27.8306H11.7156L12.8758 25.9082L11.7156 23.9858Z" fill="white" stroke="black" stroke-width="2" stroke-miterlimit="10"/>
<path d="M16.8205 16.5571H13.5719L11.9476 19.2485L13.5719 21.9398H16.8205L18.4448 19.2485L16.8205 16.5571Z" fill="white" stroke="black" stroke-width="2" stroke-miterlimit="10"/>
<path d="M22.3893 25.5991H19.6048L18.2125 27.906L19.6048 30.2129H22.3893L23.7816 27.906L22.3893 25.5991Z" fill="white" stroke="black" stroke-width="2" stroke-miterlimit="10"/>
<path d="M28.6552 16.4539H24.4784L22.39 19.9142L24.4784 23.3745H28.6552L30.7435 19.9142L28.6552 16.4539Z" fill="white" stroke="black" stroke-width="2" stroke-miterlimit="10"/>
<path d="M13.3401 21.9124L11.4838 24.1321" stroke="black" stroke-width="2" stroke-miterlimit="10"/>
<path d="M16.5892 21.9124L19.3737 25.464" stroke="black" stroke-width="2" stroke-miterlimit="10"/>
<path d="M22.6217 25.4639L24.478 23.2441" stroke="black" stroke-width="2" stroke-miterlimit="10"/>
<path d="M16.1244 17.7554H14.268L13.3398 19.2933L14.268 20.8312H16.1244L17.0525 19.2933L16.1244 17.7554Z" fill="#FFA500" stroke="white" stroke-miterlimit="10"/>
<path d="M27.9586 17.6077H25.1741L23.7819 19.9145L25.1741 22.2214H27.9586L29.3509 19.9145L27.9586 17.6077Z" fill="#FFA500"/>
<path d="M11.1355 24.947H9.97525L9.39514 25.9082L9.97525 26.8694H11.1355L11.7156 25.9082L11.1355 24.947Z" fill="#E0C398" stroke="white" stroke-miterlimit="10"/>
<path d="M21.8099 26.5603H20.1856L19.3734 27.906L20.1856 29.2517H21.8099L22.622 27.906L21.8099 26.5603Z" fill="#E0C398" stroke="white" stroke-miterlimit="10"/>
<path d="M22.0763 21.9429H20.916L20.3359 22.9041L20.916 23.8653H22.0763L22.6564 22.9041L22.0763 21.9429Z" fill="#FFA500"/>
<path d="M15.6602 26.9148H14.732L14.2679 27.6838L14.732 28.4527H15.6602L16.1243 27.6838L15.6602 26.9148Z" fill="#FFA500"/>
<path d="M10.4393 18.6719H9.74321L9.39514 19.2486L9.74321 19.8253H10.4393L10.7874 19.2486L10.4393 18.6719Z" fill="#FFA500"/>
<path d="M20.9159 13.8926H20.2198L19.8717 14.4693L20.2198 15.046H20.9159L21.264 14.4693L20.9159 13.8926Z" fill="#FFA500"/>
<path d="M28.0433 17.7021H25.2588L23.8666 20.009L25.2588 22.3159H28.0433L29.4356 20.009L28.0433 17.7021Z" fill="#FFA500" stroke="white" stroke-miterlimit="10"/>
<path d="M21.9565 30.4397H16.5V41.6741H21.9565V30.4397Z" fill="white"/>
<path d="M19.2284 0.027832L1.50781 9.94057V29.766L19.2284 39.6788L36.9489 29.766V9.94057L19.2284 0.027832Z" fill="white"/>
<path d="M21.9564 11.9363H1.49451V29.7792H21.9564V11.9363Z" fill="white"/>
<path d="M16.1558 38.3964L26.3867 21.2271L11.6196 12.9664L1.38862 30.1358L16.1558 38.3964Z" fill="white"/>
<path d="M2.72826 7.33044L0 11.9089L10.0416 17.5262L12.7699 12.9477L2.72826 7.33044Z" fill="#0098FF"/>
<path d="M36.9655 12.5964H15.4938V29.5481H36.9655V12.5964Z" fill="white"/>
<path d="M27.1938 13.4676L11.3119 22.3518L21.2336 39.0022L37.1155 30.118L27.1938 13.4676Z" fill="white"/>
<path d="M22.0242 30.4397H16.4313V41.6741H22.0242V30.4397Z" fill="#0098FF"/>
<path d="M40.0001 11.744L37.2719 7.16553L27.2302 12.7828L29.9585 17.3612L40.0001 11.744Z" fill="#0098FF"/>
<path d="M19.235 6.64771L7.42126 13.2562V26.4732L19.235 33.0817L31.0487 26.4732V13.2562L19.235 6.64771Z" fill="#0098FF"/>
<path d="M19.1998 10.8062L11.1998 15.2813V24.2316L19.1998 28.7067L27.1998 24.2316V15.2813L19.1998 10.8062Z" fill="white"/>
</svg>
