<svg width="24" height="24" viewBox="0 0 24 24" fill="none" xmlns="http://www.w3.org/2000/svg">
<path d="M23.3762 12.2527C23.3762 11.3174 23.2988 10.6349 23.1312 9.92712H12.2334V14.1485H18.6302C18.5012 15.1975 17.8048 16.7774 16.2572 17.839L16.2355 17.9803L19.6812 20.5963L19.9199 20.6196C22.1123 18.6353 23.3762 15.7157 23.3762 12.2527" fill="#0098FF"/>
<path d="M12.2326 23.375C15.3664 23.375 17.9973 22.3638 19.919 20.6197L16.2563 17.839C15.2762 18.5089 13.9607 18.9766 12.2326 18.9766C9.16315 18.9766 6.55802 16.9923 5.62936 14.2496L5.49324 14.261L1.91038 16.9784L1.86353 17.106C3.77223 20.8218 7.69286 23.375 12.2326 23.375Z" fill="#34A853"/>
<path d="M5.63013 14.2497C5.3851 13.542 5.24329 12.7836 5.24329 12C5.24329 11.2163 5.3851 10.458 5.61724 9.75026L5.61075 9.59952L1.98298 6.8385L1.86428 6.89383C1.07761 8.43579 0.626221 10.1674 0.626221 12C0.626221 13.8326 1.07761 15.5641 1.86428 17.1061L5.63013 14.2497" fill="#FBBC05"/>
<path d="M12.2326 5.0233C14.4122 5.0233 15.8824 5.94594 16.7207 6.71696L19.9965 3.5825C17.9846 1.74987 15.3665 0.625 12.2326 0.625C7.69289 0.625 3.77224 3.17804 1.86353 6.89384L5.61649 9.75027C6.55805 7.00763 9.16319 5.0233 12.2326 5.0233" fill="#EB4335"/>
</svg>
