<svg width="50" height="52" viewBox="0 0 50 52" fill="none" xmlns="http://www.w3.org/2000/svg">
<path d="M14.6447 29.9141H11.7442L10.2939 32.3144L11.7442 34.7147H14.6447L16.095 32.3144L14.6447 29.9141Z" fill="white" stroke="black" stroke-width="2" stroke-miterlimit="10"/>
<path d="M21.0257 20.6389H16.9649L14.9346 23.9994L16.9649 27.3598H21.0257L23.0561 23.9994L21.0257 20.6389Z" fill="white" stroke="black" stroke-width="2" stroke-miterlimit="10"/>
<path d="M27.9866 31.9285H24.5059L22.7656 34.8089L24.5059 37.6893H27.9866L29.7269 34.8089L27.9866 31.9285Z" fill="white" stroke="black" stroke-width="2" stroke-miterlimit="10"/>
<path d="M35.8187 20.51H30.5978L27.9873 24.8306L30.5978 29.1512H35.8187L38.4292 24.8306L35.8187 20.51Z" fill="white" stroke="black" stroke-width="2" stroke-miterlimit="10"/>
<path d="M16.6749 27.3254L14.3545 30.0971" stroke="black" stroke-width="2" stroke-miterlimit="10"/>
<path d="M20.7363 27.3254L24.217 31.7601" stroke="black" stroke-width="2" stroke-miterlimit="10"/>
<path d="M28.2773 31.7599L30.5978 28.9883" stroke="black" stroke-width="2" stroke-miterlimit="10"/>
<path d="M20.1554 22.1345H17.835L16.6748 24.0548L17.835 25.9751H20.1554L21.3157 24.0548L20.1554 22.1345Z" fill="#FFA500" stroke="white" stroke-miterlimit="10"/>
<path d="M34.9485 21.9504H31.4679L29.7275 24.8308L31.4679 27.7112H34.9485L36.6888 24.8308L34.9485 21.9504Z" fill="#FFA500"/>
<path d="M13.9195 31.1143H12.4693L11.7441 32.3144L12.4693 33.5146H13.9195L14.6447 32.3144L13.9195 31.1143Z" fill="#E0C398" stroke="white" stroke-miterlimit="10"/>
<path d="M27.2624 33.1287H25.232L24.2168 34.8089L25.232 36.4891H27.2624L28.2775 34.8089L27.2624 33.1287Z" fill="#E0C398" stroke="white" stroke-miterlimit="10"/>
<path d="M27.5953 27.3635H26.1451L25.4199 28.5637L26.1451 29.7639H27.5953L28.3205 28.5637L27.5953 27.3635Z" fill="#FFA500"/>
<path d="M19.5753 33.5715H18.4151L17.835 34.5317L18.4151 35.4918H19.5753L20.1554 34.5317L19.5753 33.5715Z" fill="#FFA500"/>
<path d="M13.0494 23.2791H12.1792L11.7441 23.9991L12.1792 24.7192H13.0494L13.4845 23.9991L13.0494 23.2791Z" fill="#FFA500"/>
<path d="M26.1451 17.3113H25.2749L24.8398 18.0314L25.2749 18.7515H26.1451L26.5802 18.0314L26.1451 17.3113Z" fill="#FFA500"/>
<path d="M35.054 22.0681H31.5733L29.833 24.9485L31.5733 27.8289H35.054L36.7943 24.9485L35.054 22.0681Z" fill="#FFA500" stroke="white" stroke-miterlimit="10"/>
<path d="M27.4456 37.9727H20.625V52.0001H27.4456V37.9727Z" fill="white"/>
<path d="M24.0355 0L1.88477 12.3772V37.1315L24.0355 49.5087L46.1861 37.1315V12.3772L24.0355 0Z" fill="#03045E"/>
<path d="M27.4456 14.8687H1.86816V37.1476H27.4456V14.8687Z" fill="#03045E"/>
<path d="M20.1947 47.9076L32.9834 26.4697L14.5245 16.1554L1.73578 37.5933L20.1947 47.9076Z" fill="#03045E"/>
<path d="M3.41032 9.11795L0 14.8347L12.5521 21.8484L15.9624 16.1317L3.41032 9.11795Z" fill="#F7F8FD"/>
<path d="M46.2069 15.6936H19.3672V36.8596H46.2069V15.6936Z" fill="#03045E"/>
<path d="M33.992 16.7811L14.1396 27.874L26.5418 48.6639L46.3941 37.571L33.992 16.7811Z" fill="#03045E"/>
<path d="M27.5302 37.9727H20.5391V52.0001H27.5302V37.9727Z" fill="#F7F8FD"/>
<path d="M50.0002 14.6289L46.5898 8.91211L34.0378 15.9258L37.4481 21.6426L50.0002 14.6289Z" fill="#F7F8FD"/>
<path d="M24.0435 8.26538L9.27637 16.5168V33.0197L24.0435 41.2712L38.8106 33.0197V16.5168L24.0435 8.26538Z" fill="#F7F8FD"/>
<path d="M24 13.458L14 19.0457V30.2212L24 35.8089L34 30.2212V19.0457L24 13.458Z" fill="#0098FF"/>
</svg>
